<?xml version="1.0" encoding="utf-8"?>
<!-- Generator: Adobe Illustrator 18.0.0, SVG Export Plug-In . SVG Version: 6.00 Build 0)  -->
<!DOCTYPE svg PUBLIC "-//W3C//DTD SVG 1.1 Tiny//EN" "http://www.w3.org/Graphics/SVG/1.1/DTD/svg11-tiny.dtd">
<svg version="1.1" baseProfile="tiny" id="Capa_1" xmlns="http://www.w3.org/2000/svg" xmlns:xlink="http://www.w3.org/1999/xlink"
	 x="0px" y="0px" viewBox="0 0 142.7 200" xml:space="preserve">
<g>
	<rect x="88.7" y="63.8" fill="none" width="3.1" height="12.9"/>
	<path fill="#FFFFFF" d="M80,170.7c-5.9,0-11.3,0-16.9,0c0.1,4.7-1.2,9.3,2.7,13.1c0.6,0.6,0.9,1.4,1.3,2.2c2.1,4.6,1.4,5.6-3.6,5.6
		c-5.5,0-11.1,0.2-16.6,0c-2-0.1-4-0.8-6.4-1.4c0.9-1.8,1.6-3.1,2.2-4.4c0.7-1.6,0.7-2.5-1.4-3.3c-7.6-2.6-11.4-12.3-7.9-19.5
		c0.8-1.6,1.3-3.5,1.5-5.3c0.3-2.1,1.5-2.2,3.1-2.2c6.4,0.1,12.8,0.1,19.1,0.1c15.9,0,31.8,0,47.7-0.1c2.4,0,3.8,0.4,3.5,3.3
		c-0.1,1.2,0.9,2.5,1.3,3.8c0.6,2.2,1.2,4.3,1.4,6.5c0.7,7.1-4.2,10.4-9.4,13.6c-0.7,0.4-1.2,2-1,2.8c0.3,1.4,1.2,2.6,2.2,4.5
		c-2.3,0.6-4.3,1.4-6.2,1.5c-6.3,0.2-12.5,0-18.8,0.1c-2.6,0-3.2-1.1-2.4-3.3c0.5-1.5,0.9-3.2,1.9-4.2
		C81.1,180.2,79.7,175.5,80,170.7z M96.1,162.3c1.3,1.5,2.2,2.9,3.5,3.9c0.7,0.5,2.8,0.5,3,0.1c1.1-2.4,1.8-4.9,2.8-7.7
		c-6.5,0-12.4,0-18.2,0c-2.5,0-5-0.4-6.4,2.6c-0.2,0.5-1.6,0.8-2.5,0.8c-4.6,0.1-9.2,0.1-13.8,0c-0.9,0-2.3-0.5-2.6-1.1
		c-1.1-2.3-3-2.3-5-2.3c-4.7,0-9.4,0-14.1,0c-1.6,0-3.2,0-5.3,0c0.9,2.6,1.6,4.7,2.3,6.7c0.9,2.3,2.1,2.5,3.9,0.7
		c1.1-1.1,2.1-2.3,3.2-3.5c1.8,1.7,3.2,4.1,5,4.4c1.5,0.2,3.2-2.2,5.1-3.7c0.9,1.1,1.7,2.5,2.9,3.4c0.7,0.6,2.8,0.7,2.9,0.5
		c0.9-2.8,3.1-1.9,4.9-1.9c3.3-0.1,6.7-0.1,10,0c0.8,0,1.9,0.5,2.2,1c1.1,2.4,2.4,1.6,3.6,0.3c1.1-1.1,1.9-2.3,3.1-3.7
		c0.8,1,1.5,1.6,2,2.4c1.5,2.4,3,2.6,4.8,0.2C94,164.3,95,163.4,96.1,162.3z M98.1,170.5c0,2.5-0.1,4.7,0,6.8
		c0.1,0.9,0.4,2.6,0.8,2.6c1.1,0.1,2.6-0.1,3.4-0.7c1.8-1.5,3.5-3.3,4.9-5.2c0.6-0.8,0.7-2.1,1.1-3.5
		C104.7,170.5,101.6,170.5,98.1,170.5z M44.9,174.8c0-4.5,0-4.5-4.4-4.5c-1,0-2.1-0.1-3.1,0c-0.8,0.1-2.1,0.3-2.1,0.7
		c-0.1,0.9-0.1,2.2,0.5,2.9c1.5,1.9,3.1,3.7,4.9,5.2c0.8,0.7,2.3,0.9,3.4,0.8c0.3,0,0.7-1.7,0.8-2.6C45,176.5,44.9,175.7,44.9,174.8
		z"/>
	<path fill="#FFFFFF" d="M27.5,152.6c-7.8,2.7-14.9,5.2-22.5,7.8c0-12.6,0-24.8,0-37.4c7,0.9,14.1,1.8,21.7,2.8
		C24.6,134.9,24.6,143.8,27.5,152.6z"/>
	<path fill="#FFFFFF" d="M138.1,123c0,12.5,0,24.7,0,37.5c-7.7-2.7-14.9-5.2-22.5-7.8c2.7-8.8,3.2-17.5,0.5-26.8
		C123.6,124.9,130.7,123.9,138.1,123z"/>
	<path fill="#FFFFFF" d="M54.1,142.9c0,3.3,0,6.4,0,9.5c-7.3,0-14.4,0.1-21.6-0.1c-0.8,0-1.9-1.3-2.2-2.2c-2.3-7.7-2-15.5-0.6-23.2
		c0.1-0.7,1-1.7,1.7-1.7c4.1-0.5,8.7-0.8,11.7,2.1c2.5,2.4,4.3,6.2,5,9.7C49.2,141.9,48.7,142,54.1,142.9z"/>
	<path fill="#FFFFFF" d="M88.7,152.4c0-2.7-0.2-5.4,0.1-8.1c0.1-0.7,1.6-1.8,2.4-1.7c2.9,0.2,3.2-1.2,3.6-3.7
		c0.6-3.5,1.4-7.3,3.4-10.2c1.4-2,4.7-3.2,7.3-3.6c7-1.2,7.4-0.5,8.5,6.5c0.9,6.2,0.3,12.1-1.3,18c-0.3,1.1-1.7,2.7-2.7,2.7
		C103,152.5,96.1,152.4,88.7,152.4z"/>
	<path fill="#FFFFFF" d="M1.4,99.2c0.1-1.4,0.1-2.9,0.5-4.3c0.2-1,0.9-1.9,1.4-2.8C4,93,4.9,93.7,5.4,94.6c0.7,1.2,1.1,2.5,1.7,3.7
		c1.5,2.9,3.8,4.6,7.2,4.7c3.4,0.1,6.1-1.1,7.7-4.3c0.9-1.8,1.7-3.6,2.7-5.3c0.3-0.6,1.1-1.2,1.5-1.2c0.5,0,1.1,0.9,1.3,1.5
		c1.6,6.7,0.2,16.5-6.6,19.9c-0.7,0.4-1.2,1.3-1.8,2.1c-2.3,3-6,3.1-8.6,0.2c-1.1-1.2-2.3-2.3-3.6-3.3C2.8,109.2,1.5,104.5,1.4,99.2
		z"/>
	<path fill="#FFFFFF" d="M114.9,98.4c0.1-1.1,0.2-2.8,0.6-4.4c0.1-0.7,0.9-1.2,1.3-1.8c0.5,0.5,1.2,0.8,1.5,1.4
		c1,1.8,1.8,3.8,2.9,5.5c3.4,5.4,11,5.3,14.3-0.1c1-1.6,1.5-3.4,2.5-5.1c0.4-0.7,1.3-1.2,1.9-1.7c0.4,0.7,1,1.3,1.1,2
		c1.1,7.7,0.9,14.9-6.9,19.5c-0.7,0.4-1.1,1.4-1.7,2.2c-2.4,2.9-6.3,2.8-8.6-0.1c-0.8-1-1.8-1.9-2.9-2.7
		C116.2,109.5,114.9,104.5,114.9,98.4z"/>
	<path fill="#FFFFFF" d="M24.6,84.8c-1.9,4.4-3.5,8.8-5.6,13c-1.7,3.3-7.1,2.9-8.8-0.6C8.2,93.3,6.8,89.2,5,84.8
		C11.7,84.8,18,84.8,24.6,84.8z"/>
	<path fill="#FFFFFF" d="M118.5,84.8c6.7,0,12.9,0,19.5,0c-1.8,4.4-3.3,8.7-5.3,12.6c-0.7,1.3-3.1,2.5-4.5,2.4
		c-1.6-0.1-3.7-1.5-4.5-3C121.6,93.1,120.2,89,118.5,84.8z"/>
	<path fill="#FFFFFF" d="M85.6,125.1c0,4.2,0,8.2,0,12.5c-2.5-0.8-4.3-1.9-3.9-4.8c0.3-2.3-0.6-3.2-3-3.1c-4.9,0.1-9.8,0.1-14.7,0
		c-1.9,0-2.8,0.6-2.6,2.5c0.3,2.9-1.1,4.5-3.9,5.4c0-4.2,0-8.2,0-12.6C66.8,125.1,76.1,125.1,85.6,125.1z"/>
	<path fill="#FFFFFF" d="M81,116.4c0-5.6,0-10.2,0-15.2c4.2,0,8.5,0,13.4,0c-0.2,3.4-0.3,6.7-0.6,10.1c0,0.4-0.4,1.1-0.8,1.2
		C89.2,113.8,85.4,115,81,116.4z"/>
	<path fill="#FFFFFF" d="M69.7,152.8c-4.3,0-8.2,0-12.5,0c0-3.2-0.2-6.2,0.1-9.1c0.1-1.1,1.2-2.5,2.2-3.2c2.1-1.3,4.4-2.3,6.7-3.3
		c2.5-1.1,3.5,0,3.5,2.4C69.7,143.9,69.7,148.1,69.7,152.8z"/>
	<path fill="#FFFFFF" d="M62,116.4c-4.4-1.4-8.2-2.5-12-3.9c-0.5-0.2-0.9-1.3-1-2.1c-0.1-3,0-6,0-9.3c4.2,0,8.5,0,13,0
		C62,106,62,110.7,62,116.4z"/>
	<path fill="#FFFFFF" d="M73.4,152.7c0-4.7-0.1-9.4,0.1-14.1c0-0.6,1.6-1.7,2.5-1.7c1.2,0,2.3,0.8,3.5,1.2c5.5,2.2,6.2,3.3,6.2,9.3
		c0,1.7,0,3.3,0,5.2C81.7,152.7,77.9,152.7,73.4,152.7z"/>
	<path fill="#FFFFFF" d="M42.8,115c1.1-0.1,2.3-0.6,3.2-0.2c10,4.1,20.4,4.8,31,4.5c6.8-0.2,12.9-2.5,19.1-4.4
		c0.7-0.2,1.4-0.7,2.1-0.6c0.6,0,1.2,0.6,1.7,1c-0.3,0.5-0.5,1.3-0.9,1.4c-5.6,1.7-11,4.1-16.7,4.8c-7.1,0.8-14.4,0.3-21.6,0.2
		c-6.5-0.1-12-3.5-18-5.3C42.8,115.9,42.8,115.5,42.8,115z"/>
	<path fill="#FFFFFF" d="M93.2,84.5c2.9,0,5.8,0,8.8,0c2,0,2.5,1.2,1.4,2.6c-2.5,3.2-4.7,7.3-8,9c-3.6,1.8-8.4,1.4-12.7,1.4
		c-1.8,0-3.2-5.7-2.5-8.7c0.6-2.7,2.1-4.5,5.2-4.3C87.9,84.6,90.6,84.5,93.2,84.5C93.2,84.5,93.2,84.5,93.2,84.5z M99.6,86.9
		c-5,0-9.3-0.2-13.6,0.1c-2.1,0.1-3.3,1.7-3.1,3.9c0.2,2.2,1.2,3.6,3.7,3.7C92.3,95,96.1,92,99.6,86.9z"/>
	<path fill="#FFFFFF" d="M39,84.5c4,0,7.8,0,11.5,0c2.4,0,4.8,0.1,7.2,0c3.1-0.1,4.9,1.6,5.1,4.4c0.2,2.3-0.3,4.8-0.8,7.1
		c-0.2,0.8-1.3,1.7-2.2,1.9C52.3,100,41,92.9,39,84.5z M43.6,87.1c3.4,4.9,7,7.8,12.7,7.6c3-0.1,3.9-1.8,4-4.2
		c0.1-2.4-1.5-3.6-3.8-3.7c-3.2-0.1-6.5-0.1-9.7,0C45.8,86.8,44.9,87,43.6,87.1z"/>
	<path fill="#FFFFFF" d="M103.5,99c3.8,0.1,6.7,3.2,6.6,6.9c-0.1,3.8-3.2,6.6-7,6.5c-3.7-0.1-6.4-2.9-6.4-6.7
		C96.8,101.7,99.6,98.9,103.5,99z"/>
	<path fill="#FFFFFF" d="M39.6,99c3.8,0,6.9,3,6.9,6.7c0,3.6-3,6.6-6.6,6.7c-4,0.1-7-2.9-6.9-6.9C33,102,36,99,39.6,99z"/>
	<path fill="#FFFFFF" d="M69.7,85.5c1,0,2.7,0,3.9,0c1.5,3.4,2.8,6.4,4.1,9.4c1,2.3-0.2,3-2.3,3c-2,0-4,0.1-5.9,0
		c-1.4-0.1-3.8-0.5-3.9-0.9c-0.1-1.6,0.3-3.4,0.9-5C67.2,90,68.3,88.1,69.7,85.5z"/>
	<path fill="#FFFFFF" d="M89.4,200c-2.7,0-5.4,0-8.1,0c-1.5,0-3.1-0.1-2.6-2.1c0.3-1.2,1.6-3,2.5-3.1c5.5-0.3,11-0.3,16.5,0
		c0.9,0.1,1.8,2.3,2.6,3.6c-0.9,0.5-1.7,1.4-2.6,1.4C95,200.1,92.2,199.9,89.4,200C89.4,199.9,89.4,200,89.4,200z"/>
	<path fill="#FFFFFF" d="M43,199.7c-0.2-4.3,0.4-5,4.1-5c4.6,0,9.2,0.1,13.8,0c2.3,0,3.5,0.9,3.5,3.3c0,2.6-2,1.9-3.4,2
		c-5,0.1-10,0-15,0C44.9,199.9,43.9,199.8,43,199.7z"/>
	<path fill="#FFFFFF" d="M108.6,114.7c0,2.1,0,4.3,0,6.4c-2.5,0.6-5.3,0.8-7.6,2.1c-2.3,1.3-4.6,3.3-6,5.5c-1.6,2.7-2.2,6-3.3,8.9
		c-0.2,0.6-1,1-1.6,1.5c-0.5-0.5-1-1-1.3-1.6c-0.2-0.4-0.1-1,0-1.5c1-7.7,7.6-15,15.2-17.1c0.9-0.2,1.6-1.4,2.3-2.3
		c0.6-0.7,1-1.5,1.4-2.3C107.9,114.4,108.2,114.6,108.6,114.7z"/>
	<path fill="#FFFFFF" d="M34.4,121.7c0-2.7,0-4.8,0-8c1.2,1.2,2.4,1.9,2.3,2.5c-0.1,2.4,1.5,2.6,3.2,3c4.7,0.9,8.1,3.6,10.3,7.9
		c1.1,2.2,2.3,4.5,3.2,6.8c0.5,1.2,0.6,2.6,0.7,3.9c0,0.5-0.9,1.4-1.2,1.3c-0.6-0.2-1.4-0.8-1.6-1.4c-1.4-3.5-2.4-7.3-4.2-10.6
		c-2-3.7-5.9-4.7-9.8-5.4C36.5,121.6,35.6,121.7,34.4,121.7z"/>
	<path fill="#FFFFFF" d="M77.4,101.3c0,2,0,3.9,0,6c-3.9,0-7.7,0-11.7,0c0-2,0-3.9,0-6C69.5,101.3,73.3,101.3,77.4,101.3z"/>
	<path fill="#FFFFFF" d="M65.8,116.1c-0.6-4.2,0.4-5.5,3.8-5.6c1.6-0.1,3.1-0.1,4.7,0.1c2.2,0.2,3.3,1.5,3.3,3.8
		c-0.1,2.4-2,1.7-3.2,1.7C71.5,116.2,68.6,116.1,65.8,116.1z"/>
	<path fill="#FFFFFF" d="M32.4,85.9c0.2-0.3,0.6-1.2,1-1.2c0.5-0.1,1.5,0.4,1.7,0.9c1.3,2.9,2.5,5.9,3.5,9c0.2,0.5-0.9,2.1-1.4,2.1
		c-0.9,0-2.5-0.6-2.7-1.2C33.6,92.5,33.1,89.4,32.4,85.9z"/>
	<path fill="#FFFFFF" d="M110.9,85.1c-0.9,4.3-1.5,7.5-2.4,10.5c-0.2,0.6-1.8,1.1-2.7,1.1c-0.5,0-1.4-1.6-1.2-2.2
		c0.9-2.9,2-5.7,3.2-8.4c0.3-0.6,1.1-1.2,1.8-1.3C110.1,84.6,110.9,85.1,110.9,85.1z"/>
	<path fill="#FFFFFF" d="M96.1,162.3c-1.1,1.2-2.1,2.1-2.9,3.1c-1.8,2.4-3.2,2.2-4.8-0.2c-0.5-0.8-1.2-1.4-2-2.4
		c-1.1,1.4-2,2.6-3.1,3.7c-1.2,1.3-2.5,2.1-3.6-0.3c-0.3-0.6-1.4-1-2.2-1c-3.3-0.1-6.7-0.1-10,0c-1.8,0-4.1-0.9-4.9,1.9
		c0,0.1-2.1,0-2.9-0.5c-1.2-0.9-2-2.3-2.9-3.4c-1.9,1.5-3.7,3.9-5.1,3.7c-1.7-0.2-3.2-2.7-5-4.4c-1.1,1.2-2.1,2.4-3.2,3.5
		c-1.8,1.8-3,1.6-3.9-0.7c-0.8-2-1.4-4.1-2.3-6.7c2.1,0,3.7,0,5.3,0c4.7,0,9.4,0.1,14.1,0c2.1,0,3.9,0,5,2.3
		c0.3,0.7,1.7,1.1,2.6,1.1c4.6,0.1,9.2,0.1,13.8,0c0.9,0,2.3-0.2,2.5-0.8c1.4-3,3.9-2.6,6.4-2.6c5.8,0,11.7,0,18.2,0
		c-1,2.8-1.7,5.3-2.8,7.7c-0.2,0.4-2.3,0.4-3-0.1C98.3,165.2,97.4,163.7,96.1,162.3z"/>
	<path fill="#FFFFFF" d="M98.1,170.5c3.5,0,6.5,0,10.2,0c-0.4,1.4-0.4,2.7-1.1,3.5c-1.5,1.9-3.1,3.7-4.9,5.2
		c-0.8,0.7-2.3,0.8-3.4,0.7c-0.4,0-0.7-1.7-0.8-2.6C98,175.2,98.1,173,98.1,170.5z"/>
	<path fill="#FFFFFF" d="M44.9,174.8c0,0.8,0.1,1.7,0,2.5c-0.2,0.9-0.5,2.6-0.8,2.6c-1.1,0.1-2.6-0.1-3.4-0.8
		c-1.8-1.5-3.4-3.3-4.9-5.2c-0.5-0.7-0.6-1.9-0.5-2.9c0.1-0.3,1.4-0.6,2.1-0.7c1-0.1,2.1,0,3.1,0C44.9,170.4,44.9,170.4,44.9,174.8z
		"/>
	<g>
		<path fill="#FFFFFF" d="M133.9,133.2h-11.6c-0.8,0-1.5-0.7-1.5-1.5v-0.6c0-0.8,0.7-1.5,1.5-1.5h11.6c0.8,0,1.5,0.7,1.5,1.5v0.6
			C135.4,132.6,134.7,133.2,133.9,133.2z"/>
		<path fill="#FFFFFF" d="M133.9,148.4h-11.6c-0.8,0-1.5-0.7-1.5-1.5v-0.6c0-0.8,0.7-1.5,1.5-1.5h11.6c0.8,0,1.5,0.7,1.5,1.5v0.6
			C135.4,147.7,134.7,148.4,133.9,148.4z"/>
		<path fill="#FFFFFF" d="M133.9,140.8h-11.6c-0.8,0-1.5-0.7-1.5-1.5v-0.6c0-0.8,0.7-1.5,1.5-1.5h11.6c0.8,0,1.5,0.7,1.5,1.5v0.6
			C135.4,140.2,134.7,140.8,133.9,140.8z"/>
	</g>
	<path fill="#FFFFFF" d="M128.7,136.3c1.7,0,3,1.4,3,3.1c-0.1,1.7-1.4,3-3.1,2.9c-1.7-0.1-2.8-1.3-2.8-3
		C125.7,137.5,126.9,136.3,128.7,136.3z"/>
	<path fill="#FFFFFF" d="M95.4,189.1H95c-0.6,0-1.1-0.5-1.1-1.1v-16c0-0.6,0.5-1.1,1.1-1.1h0.5c0.6,0,1.1,0.5,1.1,1.1v16
		C96.5,188.6,96,189.1,95.4,189.1z"/>
	<path fill="#FFFFFF" d="M90.7,189.1h-0.5c-0.6,0-1.1-0.5-1.1-1.1v-16c0-0.6,0.5-1.1,1.1-1.1h0.5c0.6,0,1.1,0.5,1.1,1.1v16
		C91.8,188.6,91.3,189.1,90.7,189.1z"/>
	<path fill="#FFFFFF" d="M86,189.1h-0.5c-0.6,0-1.1-0.5-1.1-1.1v-16c0-0.6,0.5-1.1,1.1-1.1H86c0.6,0,1.1,0.5,1.1,1.1v16
		C87.1,188.6,86.6,189.1,86,189.1z"/>
	<path fill="#FFFFFF" d="M59,189.1h-0.5c-0.6,0-1.1-0.5-1.1-1.1v-16c0-0.6,0.5-1.1,1.1-1.1H59c0.6,0,1.1,0.5,1.1,1.1v16
		C60.1,188.6,59.6,189.1,59,189.1z"/>
	<path fill="#FFFFFF" d="M54.3,189.1h-0.5c-0.6,0-1.1-0.5-1.1-1.1v-16c0-0.6,0.5-1.1,1.1-1.1h0.5c0.6,0,1.1,0.5,1.1,1.1v16
		C55.4,188.6,54.9,189.1,54.3,189.1z"/>
	<path fill="#FFFFFF" d="M49.6,189.1h-0.5c-0.6,0-1.1-0.5-1.1-1.1v-16c0-0.6,0.5-1.1,1.1-1.1h0.5c0.6,0,1.1,0.5,1.1,1.1v16
		C50.7,188.6,50.2,189.1,49.6,189.1z"/>
	<g>
		<path fill="#FFFFFF" d="M70.4,48.2c0,3.3,0,6.7-0.1,10c0.6,0,1.2-0.4,1.7-1.1c0.7-0.9,1-2.3,1-4.2c0-1.9-0.3-3.2-0.9-4
			C71.7,48.4,71.1,48.2,70.4,48.2z"/>
		<path fill="#FFFFFF" d="M117.2,49.6c0.1,0.2,0.3,0.5,0.8,1c0.3,0.3,0.6,0.6,1,0.9c0.3-0.3,0.8-0.8,1.4-1.5c0.4-0.4,0.8-1,1.4-1.7
			c-0.5,0.1-1.2,0.3-2.2,0.6C119,49,118.2,49.3,117.2,49.6z"/>
		<path fill="#FFFFFF" d="M19.2,49.7c-1.9-1.1-3.1-1.1-3.7-0.1c-0.5,1,0.1,2,2,3.1c0.8,0.4,1.5,0.7,2.3,0.8c0.9,0.1,1.5,0,1.7-0.4
			c0.2-0.4,0.1-1-0.5-1.7C20.5,50.6,19.9,50.1,19.2,49.7z"/>
		<path fill="#FFFFFF" d="M61.4,23.6c-0.2-0.4-0.5-1-0.9-1.9c-0.2-0.5-0.6-1.1-1.1-2c-0.1,0.5-0.1,1.2-0.3,2.3
			c-0.1,0.6-0.1,1.4-0.2,2.5c0.2,0,0.6-0.1,1.2-0.4C60.6,24,61,23.9,61.4,23.6z"/>
		<path fill="#FFFFFF" d="M142.7,77.1c-0.4-4.9-0.2-9.9-0.8-14.7c-4.4-33.1-28.5-57.1-61.7-61.8C49.1-3.7,17.5,15,5.9,44.1
			c-4.2,10.5-5,21.5-5.8,32.6c-0.2,3.6,0.1,4,3.8,4c3.8,0,7.6,0,11.4,0v0h34.7c7,0,14.1,0,21.1,0c2.5,0,5,0,7.5,0h34.1
			c8.8,0,17.7,0,26.5,0.1C141.9,80.7,142.9,79.8,142.7,77.1z M124.6,34.7c0.8,0.9,1.2,1.6,1.5,2.1l-5.3,5c-0.1-0.3-0.4-0.7-0.7-1.1
			c-0.6-0.7-1.4-1.1-2.3-1.1c-1,0-2,0.4-3.1,1.3c-0.8,0.7-1.3,1.5-1.5,2.4c-0.2,0.9,0.1,1.6,0.6,2.3c0.4,0.5,0.9,0.8,1.6,0.9
			c-0.3,0.2-0.8,0.5-1.5,0.9c-0.5,0.3-1,0.6-1.5,1c-0.7-0.3-1.4-0.8-2.1-1.6c-1.3-1.5-1.7-3.2-1.4-5.4c0.4-2.3,1.7-4.4,3.8-6.3
			c2-1.8,4.1-2.7,6.1-2.8C121.2,32.1,123.1,32.9,124.6,34.7z M117.4,27.3l-6.4,7c-1.4,1.5-3.2,3.6-5.6,6.2l-3.9-3.3l11.1-14.1
			L117.4,27.3z M103.9,17.1c4.4,2.6,5.4,5.9,3,10c-0.7,1.2-1.6,2.2-2.7,2.8c-1,0.6-1.9,0.8-2.8,0.7c0,0.4,0,1.2,0,2.6
			c0,0.6,0.2,1.5,0.3,2.6c-0.3,0-1-0.1-2.1-0.1c-0.8,0-1.5,0-2.3,0c0-0.3,0-1.2,0.1-2.5c0.1-0.7,0.2-1.7,0.5-3.2l0,0l-2.2,3.5
			l-4.4-2.6c0.8-1.5,2.1-4,4-7.4c1.1-2,2.6-4.8,4.5-8.4C101.3,15.8,102.7,16.4,103.9,17.1z M87.2,10.7l9.1,3l-2.7,6.9
			c-0.2-0.1-0.6-0.3-1.3-0.7c-0.5-0.2-1-0.4-1.6-0.6l-0.8,2.1c0.6,0.2,1.7,0.6,3.1,1c-0.2,0.3-0.4,0.7-0.8,1.4
			c-0.2,0.4-0.5,0.9-0.7,1.5c-0.2-0.1-0.5-0.3-1.2-0.6c-0.3-0.1-0.8-0.3-1.4-0.5L88,26.5c0.4,0.1,1.2,0.4,2.4,0.7
			c0.2,0.1,0.6,0.1,1.2,0.1c-0.1,0.2-0.4,0.7-0.9,1.5c-0.2,0.4-0.5,1-0.9,1.6l-7.8-2.6l2.6-8.8C85.4,17.1,86.2,14.3,87.2,10.7z
			 M68.3,17.3c0.1-2.4,0.2-5.4,0.2-8.9l5.2,0.4c0.1,0.6,0.4,1.5,0.7,2.8c0.3,0.9,0.6,2,1.1,3.3c0.3-0.5,0.9-1.6,1.7-3.2
			c0.3-0.6,0.7-1.5,1.2-2.6l4.8,0.4c-0.2,1.6-0.6,4.6-1.1,8.9c-0.3,2.6-0.6,5.6-0.9,8.9L78,27.1l0.3-5.5l-3.7,5.7l-3-6.1l-0.5,5.4
			l-3.3-0.3C67.9,24.5,68.1,21.5,68.3,17.3z M42.9,14.6L47,24.9c0.4-0.1,0.8-0.3,1.2-0.5c0.2-0.1,0.5-0.3,0.9-0.5l-4.9-9.9l5.4-2.4
			c0.7,1.8,1.8,4.7,3.4,8.7c0.8,1.9,1.8,4.5,3.2,7.9c0.1-2,0.1-5.1,0.1-9.5c0-3-0.1-5.8-0.2-8.5l5.4-0.9c0.4,1.2,1.3,3.9,2.8,8.2
			c0.8,2.2,1.9,5.2,3.3,9l-4.9,0.9l-0.6-1.5c-0.1,0.1-0.4,0.4-0.9,0.9c-0.3,0.4-0.6,0.8-1,1.4l-0.8-1.3c-0.2-0.3-0.4-0.6-0.6-1.1
			l-0.1,2.3l-2.6,0.5c0,0,0,0,0,0L52,30.2l-1.7-3.6c-0.1,0.1-0.2,0.3-0.5,0.6c-0.3,0.4-0.5,0.6-0.6,0.8l-1-1.1c-0.2-0.2-0.5-0.6-1-1
			l2.3,5.4l-4.7,2.1l-3.7-7.7c-0.9-2-2.3-4.8-4.1-8.4L42.9,14.6z M33.8,19.3l4.2,6c-0.2,0.1-0.6,0.3-1,0.5c-0.3,0.2-0.7,0.5-1.3,0.9
			c0.2,0.4,0.9,1.3,1.9,2.8c1,1.4,2.4,3.5,4.3,6.2l-3.5,2.7c-1-1.2-2.5-3.1-4.7-5.8c-0.8-0.9-1.5-1.8-2.2-2.6l-1.1,0.9l-0.9,0.9
			l-4.6-5.7L33.8,19.3z M17.9,33.3c0.8,0.7,2,1.8,3.7,3.4c1,0.9,2.3,2.1,4.1,3.6c1.4,1.2,2.4,1.9,3,2.1c0.7,0.3,1.2,0.1,1.7-0.5
			c0.1-0.2,0.2-0.4,0.3-0.7c-1.2-1.1-3.1-2.7-5.8-5c-1.4-1.1-3.3-2.6-5.7-4.6l3-3.4l5.5,5.1c1.6,1.5,4,3.6,7.3,6.5
			c-0.5,1.6-1.3,3.1-2.3,4.3c-1.3,1.5-2.7,2.3-4.2,2.4c-1.2,0.1-2.7-0.3-4.3-1.3c-0.9-0.5-2.5-1.6-4.7-3.3c-2.1-1.6-3.9-3-5.5-4.4
			L17.9,33.3z M20.4,64.6c-0.3,0.9-0.7,1.6-1,2c-0.4-0.1-0.9-0.2-1.7-0.3c-0.4-0.1-1-0.2-1.8-0.3c0.4-0.6,0.7-0.9,0.8-1.2
			c0.3-0.9,0.1-1.4-0.8-1.7c-0.6-0.2-1.2-0.2-1.8-0.1c-0.8,0.3-1.7,0.7-2.5,1c-1.6,0.6-3.3,0.7-5,0c-1.8-0.6-2.9-1.6-3.4-3
			c-0.5-1.2-0.4-2.5,0.1-4c0.3-0.8,0.8-1.7,1.5-2.7l7,2.2c-0.3,0.4-0.5,0.7-0.5,0.9c-0.1,0.3-0.1,0.6,0.1,0.9c0.2,0.4,0.5,0.6,1,0.8
			c0.4,0.1,1.1,0.1,2.3,0c1.2-0.1,2.2,0,3,0.3c1.2,0.4,2.1,1.2,2.6,2.2C20.7,62.6,20.8,63.6,20.4,64.6z M20.3,57.5
			c-2.2,0-4.5-0.6-6.8-2c-2.6-1.4-4.3-3.1-5.1-5c-0.8-1.8-0.8-3.4,0.1-5c0.9-1.5,2.3-2.4,4.2-2.6c2-0.2,4.3,0.4,6.9,1.9
			c2.4,1.4,4.1,3,5.2,4.9c1.2,2,1.3,3.8,0.4,5.4C24.2,56.7,22.6,57.5,20.3,57.5z M32.6,60.7c0,0.6,0.4,1.6,1.1,3.2
			c0.7,1.6,1.1,3.2,1.2,4.7c0.1,2.2-0.2,4.2-1,5.6c-0.8,1.4-1.9,2.1-3.2,2.1c-1.2,0-2.1,0-2.7-0.3c-0.1-0.5-0.2-1.3-0.4-2.3
			c-0.1-0.6-0.3-1.3-0.5-2.2c0.8,0.1,1.3,0.1,1.5,0c1-0.2,1.5-1,1.5-2.3c0-0.9-0.3-1.7-0.7-2.3c-0.7-0.7-1.4-1.3-2-1.9
			c-1.3-1-1.8-2.4-1.8-4.6c0-2.3,0.5-4.6,1.4-7.2c0.8-2.3,2-4.5,3.5-6.3c0.9-1,1.9-1.9,3.2-2.5c0.4,4.2,0.8,8.3,1.1,12.6
			c-0.5,0-0.9,0.2-1.2,0.3c-0.3,0.2-0.6,0.6-0.8,1.1C32.7,59.2,32.6,59.9,32.6,60.7z M47.8,71.3c0,1-0.1,2.4-0.1,3.9
			c-3.3,0.1-6.6,0.2-9.9,0.4c-0.5-5.6-1-11.1-1.4-16.6c-0.3-3.8-0.8-9-1.5-15.6c3.5-3.1,7.3-5.8,11.3-7.8c0.2,5.5,0.3,11,0.5,16.4
			c-0.3,0-0.9,0-1.8,0.1c-0.6,0.1-1.3,0.3-2.1,0.5c0,1.6,0.1,3.1,0.1,4.7c0.8-0.2,2.1-0.7,4-1.3c0,0.7-0.1,1.9-0.2,3.6
			c0,1.1-0.1,2.3-0.1,3.6c-0.2-0.1-0.8-0.1-1.6-0.1c-0.4,0-1,0.1-1.8,0.3c0.1,1.8,0.2,3.6,0.3,5.4c0.5-0.1,1.6-0.3,3-0.7
			c0.3-0.1,0.7-0.3,1.4-0.8C47.9,67.9,47.8,69.2,47.8,71.3z M61.6,70.5c-0.1,1.4-0.1,2.9-0.2,4.4c-0.8,0.8-1.9,1.2-3.1,1.3
			c-2.3,0-4.4-2-6.3-5.6c-2-4-3.3-9.1-3.7-15.5c-0.4-6,0.1-11,1.6-15.4c1.5-4.7,3.9-7.8,7.2-8.6c1.6-0.4,2.7-0.4,3.4-0.1
			c0.3,6,0.6,12,0.9,18c-0.4-0.3-1-0.4-1.7-0.3c-1.3,0.2-2.3,1.2-3,2.9c-0.8,1.9-1.1,4.5-1,7.8c0.1,2.6,0.5,4.6,1.3,6.2
			c0.7,1.6,1.7,2.4,2.8,2.3c0.7,0,1.4-0.5,2.1-1.5C61.8,67,61.7,68.4,61.6,70.5z M78.6,47.1c-0.1,3.5-0.6,6.7-1.4,9.4
			c-0.8,2.4-1.7,4-2.7,5.1c0.2,0.9,0.7,2.7,1.6,5.6c0.4,1.3,1,3,1.9,5.1c-0.4,0.3-1.2,1.1-2.4,2.5c-0.8,1-1.6,2-2.4,2.9
			c-0.2-0.7-0.7-2.5-1.4-5.5c-0.3-1.5-0.8-4-1.5-7.5c0,0,0,0,0,0c0,3.4-0.1,6.8-0.1,10.3c-2.1,0-4.2,0-6.3,0
			c-0.2-4.2-0.4-11.2-0.8-20.8c-0.2-5.7-0.5-13.6-1.1-23.6c2.3-0.9,4.4-1.4,6.3-1.5C75.5,28.8,78.9,35.5,78.6,47.1z M91.1,51
			c-0.3-0.2-0.9-0.5-1.8-1c-0.6-0.3-1.4-0.6-2.1-0.8c-0.1,1.7-0.3,3.5-0.4,5.2c0.8,0.2,2.2,0.4,4.1,0.7c-0.1,0.6-0.3,1.8-0.6,3.6
			c-0.2,1.1-0.3,2.3-0.5,3.7c-0.2-0.2-0.8-0.4-1.6-0.7c-0.4-0.1-1-0.2-1.8-0.3c-0.1,2.1-0.3,4.1-0.4,6.2c0.6,0,1.6,0,3.1-0.1
			c0.3,0,0.8-0.2,1.4-0.5c-0.1,0.5-0.3,1.8-0.6,3.9c-0.2,1.1-0.4,2.4-0.6,4.1c-3.3-0.1-6.6-0.1-9.9-0.2c0.1-7.5,0.2-15.1,0.3-22.6
			c0.1-5.2,0.1-12.4,0.1-21.8c4.4,0.7,8.7,2,12.8,3.8C92.1,39.9,91.6,45.4,91.1,51z M104.4,55.6c-0.4-0.2-1-0.6-1.8-1
			c-0.1,0.9-0.3,3-0.7,6.3c-0.3,3.3-0.8,8.1-1.4,14.5c-1.8-0.1-3.6-0.1-5.3-0.2c0.2-3.4,0.4-8.6,0.7-15.9c0.1-2.5,0.2-5,0.2-7.4
			c-0.6-0.2-1.2-0.3-1.8-0.5c-0.5,0-1.1-0.1-1.6-0.1c0.2-5.5,0.4-11.1,0.7-16.6c4.9,2.2,9.4,5.2,13.5,9c-0.4,4.3-0.8,8.6-1.2,12.9
			C105.4,56.4,105,56.1,104.4,55.6z M116.1,54.1l1.2-1.1c-0.1-0.1-0.5-0.3-1.2-0.5c-0.4-0.2-1-0.3-1.6-0.4c0.3,0.6,0.7,1.3,1,1.9
			c0.1,3.1,0.1,6.2,0.2,9.3c-0.4-0.5-0.8-0.9-1-1.1c-0.3-0.2-0.6-0.3-0.8-0.1c-0.3,0.2-0.5,0.6-0.5,1.3c0,0.5,0.2,1.7,0.8,3.4
			c0.5,1.7,0.8,3,0.8,4.2c0,1.6-0.5,2.9-1.4,3.9c-0.9,1-2,1.5-3.3,1.5c-1.2,0-2.1-0.2-2.6-0.5c0-0.6-0.1-1.6-0.2-2.9
			c-0.1-0.7-0.1-1.7-0.2-3c0.8,0.5,1.3,0.8,1.5,0.9c1.1,0.2,1.6-0.3,1.7-1.7c0-1-0.1-1.9-0.5-2.9c-0.6-1.3-1.2-2.7-1.8-4.1
			c-1.2-2.8-1.6-5.9-1.4-9.1c0.2-3.3,1-5.4,2.2-5.8c1.1-0.4,2.4,0.4,3.9,2.3c0.5,0.7,1.1,1.6,1.6,2.6l0.9-1.2c0.2-0.2,0.4-0.6,0.8-1
			l-2.2,0.7l-1.4-2.3c1.8-0.7,4.9-1.8,9.1-3.4c2.8-1.1,5.4-2.2,7.9-3.3l2.8,4.7c-1,0.8-3.2,2.6-6.6,5.6c-1.8,1.6-4.2,3.7-7.1,6.3
			L116.1,54.1z M131.4,64.8c-2.7,0.9-5.8,2.1-9.4,3.3c0.5-1,1.1-2.6,2-4.7c0.3-0.9,0.8-2.2,1.5-4l-5.8,2.1l-1.1-2.7
			c1.5-0.6,4.2-1.8,8.2-3.5c3.3-1.4,6-2.6,8.2-3.6l1.6,4.3l-2.6,4.6c0.9-0.3,1.6-0.6,2.1-0.8c0.4-0.2,1-0.4,1.7-0.8l1.2,3.2
			C137.7,62.7,135.1,63.5,131.4,64.8z"/>
		<path fill="#FFFFFF" d="M100.6,28.2c0.6-0.1,1.1-0.4,1.5-1c0.4-0.6,0.4-1.2,0.2-1.7c-0.2-0.4-0.5-0.7-1-0.9l-2.1,3.4
			C99.6,28.2,100.1,28.3,100.6,28.2z"/>
		<path fill="#FFFFFF" d="M56.3,28.4c0,0,0-0.1,0-0.1C56.2,28.3,56.2,28.3,56.3,28.4L56.3,28.4z"/>
		<polygon fill="#FFFFFF" points="114.4,52.1 114.5,52.1 114.4,52.1 		"/>
	</g>
</g>
</svg>
