<?xml version="1.0" encoding="utf-8"?>
<!-- Generator: Adobe Illustrator 18.0.0, SVG Export Plug-In . SVG Version: 6.00 Build 0)  -->
<!DOCTYPE svg PUBLIC "-//W3C//DTD SVG 1.1 Tiny//EN" "http://www.w3.org/Graphics/SVG/1.1/DTD/svg11-tiny.dtd">
<svg version="1.1" baseProfile="tiny" id="Capa_1" xmlns="http://www.w3.org/2000/svg" xmlns:xlink="http://www.w3.org/1999/xlink"
	 x="0px" y="0px" viewBox="0 0 816.7 200" xml:space="preserve">
<rect x="88.7" y="63.8" fill="none" width="3.1" height="12.9"/>
<g>
	<image width="80" height="37" xlink:href="674AF414.png"  transform="matrix(1 0 0 1 31.3869 155.4757)">
	</image>
	<image width="23" height="38" xlink:href="674AF41B.png"  transform="matrix(1 0 0 1 5.3869 122.4757)">
	</image>
	<image width="23" height="38" xlink:href="674AF41C.png"  transform="matrix(1 0 0 1 115.3869 122.4757)">
	</image>
	<image width="26" height="28" xlink:href="674AF41D.png"  transform="matrix(1 0 0 1 28.3869 124.4757)">
	</image>
	<image width="27" height="28" xlink:href="674AF41A.png"  transform="matrix(1 0 0 1 88.3869 124.4757)">
	</image>
	<image width="28" height="27" xlink:href="674AF419.png"  transform="matrix(1 0 0 1 0.3869 91.4757)">
	</image>
	<image width="28" height="27" xlink:href="674AF408.png"  transform="matrix(1 0 0 1 114.3869 91.4757)">
	</image>
	<image width="21" height="16" xlink:href="674AF409.png"  transform="matrix(1 0 0 1 4.3869 84.4757)">
	</image>
	<image width="20" height="16" xlink:href="674AF40A.png"  transform="matrix(1 0 0 1 118.3869 84.4757)">
	</image>
	<image width="28" height="13" xlink:href="EDD546DA.png"  transform="matrix(1 0 0 1 57.3869 125.4757)">
	</image>
	<image width="13" height="15" xlink:href="EDD546DB.png"  transform="matrix(1 0 0 1 81.3869 101.4757)">
	</image>
	<image width="14" height="16" xlink:href="EDD546DC.png"  transform="matrix(1 0 0 1 56.3869 136.4757)">
	</image>
	<image width="14" height="15" xlink:href="EDD546DD.png"  transform="matrix(1 0 0 1 48.3869 101.4757)">
	</image>
	<image width="12" height="16" xlink:href="EDD546D8.png"  transform="matrix(1 0 0 1 73.3869 136.4757)">
	</image>
	<image width="58" height="9" xlink:href="EDD546D9.png"  transform="matrix(1 0 0 1 42.3869 113.4757)">
	</image>
	<image width="25" height="15" xlink:href="EDD546C8.png"  transform="matrix(1 0 0 1 79.3869 83.4757)">
	</image>
	<image width="25" height="15" xlink:href="EDD546C9.png"  transform="matrix(1 0 0 1 38.3869 83.4757)">
	</image>
	<image width="14" height="14" xlink:href="EDD546CA.png"  transform="matrix(1 0 0 1 96.3869 98.4757)">
	</image>
	<image width="15" height="14" xlink:href="EDD546CB.png"  transform="matrix(1 0 0 1 32.3869 98.4757)">
	</image>
	<image width="13" height="13" xlink:href="EDD546FA.png"  transform="matrix(1 0 0 1 65.3869 85.4757)">
	</image>
	<image width="23" height="6" xlink:href="EDD546EC.png"  transform="matrix(1 0 0 1 78.3869 194.4757)">
	</image>
	<image width="22" height="6" xlink:href="EDD546EE.png"  transform="matrix(1 0 0 1 42.3869 194.4757)">
	</image>
	<image width="20" height="26" xlink:href="EDD546D2.png"  transform="matrix(1 0 0 1 88.3869 113.4757)">
	</image>
	<image width="20" height="26" xlink:href="EDD546D3.png"  transform="matrix(1 0 0 1 34.3869 113.4757)">
	</image>
	<image width="12" height="6" xlink:href="EDD546D4.png"  transform="matrix(1 0 0 1 65.3869 101.4757)">
	</image>
	<image width="13" height="7" xlink:href="EDD546D5.png"  transform="matrix(1 0 0 1 65.3869 109.4757)">
	</image>
	<image width="7" height="13" xlink:href="EDD546D6.png"  transform="matrix(1 0 0 1 32.3869 84.4757)">
	</image>
	<image width="7" height="13" xlink:href="EDD546D7.png"  transform="matrix(1 0 0 1 104.3869 84.4757)">
	</image>
	<image width="4" height="11" xlink:href="EDD546D0.png"  transform="matrix(1 0 0 1 69.3869 47.4757)">
	</image>
	<image width="6" height="5" xlink:href="EDD5470B.png"  transform="matrix(1 0 0 1 116.3869 47.4757)">
	</image>
	<image width="8" height="6" xlink:href="EDD54737.png"  transform="matrix(1 0 0 1 14.3869 48.4757)">
	</image>
	<image width="4" height="6" xlink:href="EDD54732.png"  transform="matrix(1 0 0 1 58.3869 19.4757)">
	</image>
	<image width="144" height="83" xlink:href="EDD54733.png"  transform="matrix(1 0 0 1 -0.6131 -0.5243)">
	</image>
	<image width="5" height="4" xlink:href="EDD5473F.png"  transform="matrix(1 0 0 1 98.3869 24.4757)">
	</image>
	<image width="1" height="1" xlink:href="EDD54731.png"  transform="matrix(1 0 0 1 55.3869 27.4757)">
	</image>
	<image width="1" height="1" xlink:href="EDD54730.png"  transform="matrix(1 0 0 1 114.3869 51.4757)">
	</image>
</g>
<g>
	<image width="228" height="57" xlink:href="EDD5472B.png"  transform="matrix(1 0 0 1 137.3869 87.4757)">
	</image>
	<g>
		<path fill="#FFFFFF" d="M157.9,115.1c0-0.9-0.3-1.6-0.8-2.2c-0.6-0.5-1.5-1.1-2.9-1.6c-2.4-0.8-4.3-1.8-5.5-2.9
			c-1.2-1.1-1.9-2.6-1.9-4.6s0.7-3.5,2.1-4.7c1.4-1.2,3.3-1.8,5.5-1.8c2.2,0,4.1,0.7,5.5,2.1c1.4,1.4,2.1,3.1,2,5.1l0,0.1h-4
			c0-1.1-0.3-2-0.9-2.6c-0.6-0.7-1.5-1-2.7-1c-1.1,0-1.9,0.3-2.5,0.8c-0.6,0.6-0.9,1.3-0.9,2.1c0,0.8,0.3,1.5,1,2
			c0.6,0.5,1.7,1.1,3.3,1.6c2.3,0.7,4,1.7,5.1,2.9c1.2,1.2,1.7,2.7,1.7,4.7c0,2-0.7,3.6-2.1,4.8c-1.4,1.2-3.2,1.7-5.5,1.7
			c-2.2,0-4.2-0.7-5.8-2c-1.7-1.3-2.5-3.2-2.4-5.6l0-0.1h4c0,1.4,0.4,2.4,1.1,3.1c0.7,0.7,1.8,1,3.1,1c1.1,0,2-0.3,2.6-0.8
			C157.6,116.7,157.9,116,157.9,115.1z"/>
		<path fill="#FFFFFF" d="M171.5,121.6c-2.2,0-3.9-0.8-5.3-2.4c-1.3-1.6-2-3.7-2-6.2v-0.6c0-2.6,0.6-4.7,1.9-6.4
			c1.2-1.7,2.9-2.5,5-2.5c2,0,3.6,0.7,4.8,2.1c1.1,1.4,1.7,3.3,1.7,5.8v2.6h-9.1l0,0.1c0.1,1.1,0.4,2.1,1,2.8
			c0.6,0.7,1.4,1.1,2.4,1.1c0.9,0,1.7-0.1,2.3-0.3c0.6-0.2,1.3-0.5,2-1l1.1,2.9c-0.6,0.6-1.4,1.1-2.4,1.5
			C173.8,121.4,172.7,121.6,171.5,121.6z M171.1,107c-0.8,0-1.4,0.3-1.8,1c-0.4,0.7-0.7,1.5-0.8,2.6l0,0.1h5v-0.4
			c0-1-0.2-1.8-0.6-2.4C172.6,107.3,172,107,171.1,107z"/>
		<path fill="#FFFFFF" d="M186.4,117.9c0.7,0,1.3-0.2,1.8-0.7s0.7-1.1,0.7-2h3.7l0,0.1c0,1.8-0.5,3.2-1.7,4.4
			c-1.2,1.2-2.7,1.8-4.4,1.8c-2.3,0-4-0.8-5.2-2.5c-1.2-1.6-1.8-3.8-1.8-6.4v-0.5c0-2.6,0.6-4.7,1.8-6.4c1.2-1.7,3-2.5,5.2-2.5
			c1.9,0,3.4,0.6,4.5,1.8c1.1,1.2,1.7,2.8,1.7,4.8l0,0.1h-3.7c0-0.9-0.2-1.7-0.6-2.3c-0.4-0.6-1-0.9-1.8-0.9c-1.1,0-1.9,0.5-2.3,1.5
			c-0.4,1-0.7,2.2-0.7,3.7v0.5c0,1.6,0.2,2.8,0.7,3.8C184.5,117.4,185.3,117.9,186.4,117.9z"/>
		<path fill="#FFFFFF" d="M202.9,107.8l-1.5,0c-0.6,0-1.1,0.1-1.5,0.4c-0.4,0.3-0.7,0.7-0.9,1.2v11.8h-4.1v-17.5h3.8l0.2,2.6
			c0.4-0.9,0.8-1.6,1.4-2.1c0.6-0.5,1.2-0.8,2-0.8c0.2,0,0.4,0,0.6,0.1c0.2,0,0.3,0.1,0.5,0.1L202.9,107.8z"/>
		<path fill="#FFFFFF" d="M211.7,121.6c-2.2,0-3.9-0.8-5.3-2.4c-1.3-1.6-2-3.7-2-6.2v-0.6c0-2.6,0.6-4.7,1.9-6.4
			c1.2-1.7,2.9-2.5,5-2.5c2,0,3.6,0.7,4.8,2.1c1.1,1.4,1.7,3.3,1.7,5.8v2.6h-9.1l0,0.1c0.1,1.1,0.4,2.1,1,2.8
			c0.6,0.7,1.4,1.1,2.4,1.1c0.9,0,1.7-0.1,2.3-0.3c0.6-0.2,1.3-0.5,2-1l1.1,2.9c-0.6,0.6-1.4,1.1-2.4,1.5
			C214,121.4,212.9,121.6,211.7,121.6z M211.3,107c-0.8,0-1.4,0.3-1.8,1c-0.4,0.7-0.7,1.5-0.8,2.6l0,0.1h5v-0.4c0-1-0.2-1.8-0.6-2.4
			C212.8,107.3,212.1,107,211.3,107z"/>
		<path fill="#FFFFFF" d="M225,99.4v4.3h2.6v3.3H225v8.9c0,0.7,0.1,1.2,0.4,1.5c0.2,0.3,0.6,0.4,1,0.4c0.2,0,0.4,0,0.6,0
			c0.2,0,0.3-0.1,0.5-0.1l0.4,3.4c-0.4,0.2-0.8,0.3-1.2,0.4c-0.4,0.1-0.8,0.1-1.3,0.1c-1.4,0-2.5-0.4-3.3-1.3
			c-0.8-0.9-1.1-2.3-1.1-4.2V107h-2.2v-3.3h2.2v-4.3H225z"/>
		<path fill="#FFFFFF" d="M238.4,116.4c0-0.5-0.2-1-0.7-1.3c-0.4-0.4-1.2-0.7-2.4-1c-1.8-0.4-3.2-1-4.1-1.9
			c-0.9-0.8-1.4-1.9-1.4-3.4c0-1.5,0.5-2.8,1.6-3.8c1.1-1.1,2.6-1.6,4.4-1.6c1.9,0,3.5,0.5,4.6,1.6c1.1,1,1.7,2.4,1.6,4l0,0.1h-4
			c0-0.7-0.2-1.3-0.6-1.7c-0.4-0.4-1-0.7-1.7-0.7c-0.7,0-1.2,0.2-1.6,0.6c-0.4,0.4-0.6,0.8-0.6,1.4c0,0.5,0.2,1,0.6,1.3
			c0.4,0.3,1.2,0.7,2.4,0.9c1.9,0.4,3.3,1.1,4.2,1.9c0.9,0.8,1.4,2,1.4,3.5c0,1.6-0.6,2.9-1.8,3.9c-1.2,1-2.7,1.5-4.6,1.5
			c-2,0-3.6-0.6-4.8-1.8c-1.2-1.2-1.7-2.5-1.7-4l0-0.1h3.7c0,0.9,0.3,1.6,0.8,2c0.5,0.4,1.2,0.6,2,0.6c0.8,0,1.3-0.2,1.7-0.5
			C238.2,117.5,238.4,117,238.4,116.4z"/>
		<path fill="#FFFFFF" d="M251.6,112.3c0-2.6,0.6-4.7,1.9-6.4c1.3-1.7,3-2.5,5.3-2.5c2.2,0,4,0.8,5.3,2.5c1.3,1.7,1.9,3.8,1.9,6.4
			v0.3c0,2.6-0.6,4.8-1.9,6.4c-1.3,1.7-3,2.5-5.3,2.5c-2.2,0-4-0.8-5.3-2.5c-1.3-1.7-1.9-3.8-1.9-6.4V112.3z M255.7,112.6
			c0,1.6,0.2,2.9,0.7,3.8c0.5,1,1.3,1.4,2.4,1.4c1.1,0,1.8-0.5,2.3-1.5c0.5-1,0.7-2.2,0.7-3.8v-0.3c0-1.5-0.2-2.8-0.7-3.8
			c-0.5-1-1.3-1.5-2.3-1.5c-1.1,0-1.8,0.5-2.3,1.5c-0.5,1-0.7,2.2-0.7,3.8V112.6z"/>
		<path fill="#FFFFFF" d="M269.5,121.2V107h-2.3v-3.3h2.3v-1.9c0-2,0.5-3.5,1.5-4.5s2.4-1.6,4.1-1.6c0.3,0,0.7,0,1.1,0.1
			c0.4,0.1,0.8,0.1,1.2,0.3l-0.4,3.5c-0.2,0-0.4-0.1-0.7-0.1c-0.2,0-0.5,0-0.7,0c-0.7,0-1.2,0.2-1.5,0.6c-0.3,0.4-0.5,1-0.5,1.8v1.9
			h3v3.3h-3v14.2H269.5z"/>
		<path fill="#FFFFFF" d="M290.3,112.7v8.5h-4.1V97.7h8.1c2.4,0,4.2,0.7,5.5,2.1c1.3,1.4,2,3.2,2,5.4c0,2.3-0.7,4.1-2,5.4
			c-1.3,1.4-3.2,2.1-5.5,2.1H290.3z M290.3,109h4c1.1,0,2-0.4,2.6-1.1c0.6-0.7,0.9-1.6,0.9-2.7c0-1.1-0.3-2.1-0.9-2.8
			c-0.6-0.7-1.5-1.1-2.6-1.1h-4V109z"/>
		<path fill="#FFFFFF" d="M311.1,121.6c-2.2,0-3.9-0.8-5.3-2.4c-1.3-1.6-2-3.7-2-6.2v-0.6c0-2.6,0.6-4.7,1.9-6.4
			c1.2-1.7,2.9-2.5,5-2.5c2,0,3.6,0.7,4.8,2.1c1.1,1.4,1.7,3.3,1.7,5.8v2.6h-9.1l0,0.1c0.1,1.1,0.4,2.1,1,2.8
			c0.6,0.7,1.4,1.1,2.4,1.1c0.9,0,1.7-0.1,2.3-0.3c0.6-0.2,1.3-0.5,2-1l1.1,2.9c-0.6,0.6-1.4,1.1-2.4,1.5
			C313.5,121.4,312.3,121.6,311.1,121.6z M310.8,107c-0.8,0-1.4,0.3-1.8,1c-0.4,0.7-0.7,1.5-0.8,2.6l0,0.1h5v-0.4
			c0-1-0.2-1.8-0.6-2.4C312.2,107.3,311.6,107,310.8,107z"/>
		<path fill="#FFFFFF" d="M327.6,107.8l-1.5,0c-0.6,0-1.1,0.1-1.5,0.4c-0.4,0.3-0.7,0.7-0.9,1.2v11.8h-4.1v-17.5h3.8l0.2,2.6
			c0.4-0.9,0.8-1.6,1.4-2.1c0.6-0.5,1.2-0.8,2-0.8c0.2,0,0.4,0,0.6,0.1c0.2,0,0.3,0.1,0.5,0.1L327.6,107.8z"/>
		<path fill="#FFFFFF" d="M339,118.7c-0.5,0.9-1.1,1.6-1.8,2.1c-0.7,0.5-1.5,0.7-2.5,0.7c-1.6,0-2.9-0.6-3.8-1.8
			c-0.9-1.2-1.4-3-1.4-5.5v-10.6h4.1v10.6c0,1.3,0.2,2.2,0.6,2.7c0.4,0.6,0.9,0.8,1.7,0.8c0.7,0,1.2-0.1,1.7-0.4
			c0.5-0.2,0.9-0.6,1.2-1.1v-12.7h4.1v17.5h-3.5L339,118.7z"/>
	</g>
</g>
<g>
	<image width="694" height="86" xlink:href="EDD5472C.png"  transform="matrix(1 0 0 1 137.3869 25.4757)">
	</image>
	<g>
		<path fill="#FFFFFF" d="M174.6,75.9c0-3.2-1-5.7-3-7.6c-2-1.9-5.5-3.6-10.4-5.2c-5-1.5-8.6-3.3-10.9-5.3c-2.3-2-3.5-4.8-3.5-8.6
			c0-3.7,1.4-6.7,4.1-9c2.7-2.2,6.2-3.3,10.4-3.3c4.3,0,7.7,1.4,10.4,4.1c2.7,2.7,4,6.3,3.9,10.6l-0.1,0.2h-1.4
			c0-3.7-1.2-6.9-3.6-9.3c-2.4-2.5-5.5-3.7-9.3-3.7c-4,0-7.1,1-9.4,3.1c-2.3,2-3.5,4.5-3.5,7.3c0,2.9,1,5.2,2.9,7.1
			c1.9,1.9,5.4,3.6,10.4,5c4.8,1.5,8.5,3.3,11,5.4c2.5,2.1,3.7,5.1,3.7,9.1c0,4-1.4,7.1-4.2,9.4c-2.8,2.3-6.3,3.4-10.6,3.4
			c-4.4,0-8.1-1.2-11.3-3.5c-3.2-2.4-4.7-6.1-4.6-11.1l0.1-0.2h1.3c0,4.6,1.5,7.9,4.4,9.9c2.9,2.1,6.3,3.1,10.1,3.1c3.8,0,7-1,9.5-3
			C173.4,81.8,174.6,79.1,174.6,75.9z"/>
		<path fill="#FFFFFF" d="M181.7,68.6c0-5.5,1.3-9.9,3.9-13.4c2.6-3.5,6-5.2,10.2-5.2c4.2,0,7.6,1.7,10.3,5.2
			c2.6,3.5,3.9,7.9,3.9,13.4V70c0,5.5-1.3,10-3.9,13.5c-2.6,3.5-6,5.2-10.2,5.2c-4.2,0-7.6-1.7-10.3-5.2c-2.6-3.5-4-8-4-13.5V68.6z
			 M183.3,70c0,4.7,1.1,8.7,3.4,11.9c2.3,3.3,5.3,4.9,9.2,4.9c3.8,0,6.8-1.6,9.1-4.9c2.3-3.3,3.4-7.2,3.4-11.9v-1.4
			c0-4.6-1.1-8.5-3.4-11.8c-2.3-3.3-5.3-5-9.1-5c-3.8,0-6.9,1.7-9.1,5c-2.3,3.3-3.4,7.2-3.4,11.8V70z"/>
		<path fill="#FFFFFF" d="M239.6,81.3c-1,2.4-2.5,4.2-4.4,5.5c-1.9,1.3-4.2,1.9-6.9,1.9c-3.3,0-5.9-1.4-7.8-4.1
			c-1.9-2.7-2.8-7-2.8-12.7V50.6h1.6V72c0,5.1,0.8,8.8,2.4,11.2c1.6,2.4,3.8,3.6,6.6,3.6c3.4,0,6-1,7.8-2.9c1.8-1.9,3-4.4,3.5-7.6
			V50.6h1.6v37.3h-1.3L239.6,81.3z"/>
		<path fill="#FFFFFF" d="M254.8,40.6v10.1h8v1.9h-8v25.8c0,3.1,0.5,5.2,1.3,6.5c0.9,1.3,2.1,1.9,3.6,1.9c0.5,0,1,0,1.4-0.1
			c0.4,0,1-0.1,1.7-0.2l0.3,1.7c-0.5,0.2-1,0.3-1.6,0.4s-1.1,0.1-1.8,0.1c-2.2,0-3.8-0.8-5-2.4c-1.1-1.6-1.7-4.3-1.7-7.9V52.5h-6
			v-1.9h6V40.6H254.8z"/>
		<path fill="#FFFFFF" d="M272,58.5c1-2.7,2.5-4.8,4.4-6.3c1.9-1.5,4.3-2.2,7.1-2.2c3.4,0,5.9,1.2,7.7,3.7c1.7,2.5,2.6,6.3,2.6,11.6
			v22.7h-1.6V65.2c0-4.9-0.8-8.4-2.4-10.4c-1.6-2-3.7-3-6.3-3c-3.5,0-6.2,1.2-8,3.6c-1.9,2.4-3,5.5-3.5,9.2v23.3h-1.6V34.1h1.6V58.5
			z"/>
		<path fill="#57167D" d="M339,81c-1.1,2.3-2.8,4.1-5,5.5c-2.2,1.4-4.9,2.1-8.1,2.1c-3,0-5.4-0.9-7.1-2.8c-1.7-1.9-2.6-4.5-2.6-7.7
			c0-3.1,1.3-5.7,3.9-7.9c2.6-2.1,5.8-3.2,9.6-3.2h9.3v-5.5c0-3.1-0.9-5.5-2.6-7.3c-1.7-1.7-4.2-2.6-7.3-2.6c-2.9,0-5.3,0.8-7.1,2.4
			c-1.8,1.6-2.7,3.7-2.7,6.3l-1.3-0.1l-0.1-0.2c-0.1-2.9,0.9-5.4,2.9-7.4c2.1-2,4.8-3,8.2-3c3.5,0,6.3,1,8.4,3
			c2.1,2,3.1,4.9,3.1,8.8v18.7c0,1.3,0.1,2.6,0.2,3.8c0.1,1.2,0.3,2.5,0.6,3.7h-1.8c-0.3-1.6-0.4-2.9-0.5-3.7s-0.1-1.7-0.1-2.6V81z
			 M326,86.8c3.2,0,5.9-0.8,8.2-2.4c2.2-1.6,3.9-4,4.9-7V69h-9.2c-3.4,0-6.2,0.9-8.5,2.7c-2.3,1.8-3.5,4-3.5,6.6
			c0,2.5,0.7,4.6,2.2,6.2C321.6,86,323.5,86.8,326,86.8z"/>
		<path fill="#57167D" d="M352.2,50.6l0.2,7.7c1-2.6,2.4-4.7,4.2-6.2c1.8-1.5,4.1-2.2,6.7-2.2c2.8,0,5.1,0.8,6.8,2.5
			c1.7,1.6,3,4.2,3.6,7.6c0.9-3.2,2.3-5.7,4.2-7.4c1.9-1.8,4.4-2.7,7.3-2.7c3.6,0,6.3,1.3,8.2,4c1.9,2.7,2.8,6.9,2.8,12.7v21.3h-1.6
			V66.6c0-5.4-0.8-9.2-2.5-11.5c-1.7-2.2-3.9-3.3-6.7-3.3c-3.4,0-6,1.2-7.8,3.6c-1.8,2.4-2.9,5.5-3.3,9.2c0,0.5,0,0.9,0,1.2
			c0,0.3,0,0.7,0,1v21.2h-1.6V66.6c0-5.4-0.8-9.2-2.5-11.5c-1.7-2.2-3.9-3.3-6.7-3.3c-3.4,0-5.9,1.1-7.6,3.4
			c-1.7,2.3-2.8,5.2-3.3,8.8v23.9h-1.6V50.6H352.2z"/>
		<path fill="#57167D" d="M417.2,88.7c-3.7,0-6.9-1.7-9.6-5.2s-4-7.7-4-12.8v-2.2c0-5.4,1.3-9.8,3.9-13.3c2.6-3.5,5.8-5.3,9.6-5.3
			c3.7,0,6.6,1.4,8.9,4.1c2.3,2.8,3.5,6.5,3.5,11.1V68h-24.3v0.4v2.2c0,4.5,1.1,8.3,3.4,11.4c2.3,3.1,5.1,4.7,8.5,4.7
			c2.4,0,4.4-0.4,6.1-1.1c1.6-0.8,3-1.9,4.2-3.4l0.9,1.4c-1.3,1.6-2.8,2.9-4.7,3.7C421.8,88.3,419.6,88.7,417.2,88.7z M417.1,51.8
			c-3.2,0-5.9,1.4-8,4.1c-2.1,2.7-3.3,6.1-3.6,10.1l0.1,0.2h22.4V65c0-3.8-1-7-3-9.5C422.9,53.1,420.3,51.8,417.1,51.8z"/>
		<path fill="#57167D" d="M451.3,52l-2.1-0.2c-2.9,0-5.3,1.1-7.1,3.2c-1.8,2.2-3,5-3.5,8.5v24.5H437V50.6h1.3l0.3,6.5v1.3
			c0.9-2.7,2.2-4.7,4-6.2c1.8-1.5,4-2.2,6.6-2.2c0.5,0,0.9,0,1.3,0.1s0.7,0.2,1,0.3L451.3,52z"/>
		<path fill="#57167D" d="M459.4,38.9h-1.6v-4.8h1.6V38.9z M459.4,87.9h-1.6V50.6h1.6V87.9z"/>
		<path fill="#57167D" d="M481.1,86.8c2.7,0,5.2-0.9,7.3-2.6c2.1-1.7,3.1-4.3,3.1-7.8h1.4l0.1,0.2c0.1,3.7-1.1,6.6-3.5,8.7
			c-2.4,2.2-5.2,3.3-8.3,3.3c-4.1,0-7.4-1.7-9.7-5.1c-2.3-3.4-3.5-7.9-3.5-13.5v-1.4c0-5.6,1.2-10.1,3.5-13.5
			c2.3-3.4,5.6-5.1,9.7-5.1c3.4,0,6.2,1.1,8.5,3.4s3.5,5.5,3.4,9.6l-0.1,0.2h-1.4c0-3.7-1-6.5-3.1-8.4c-2-1.9-4.5-2.9-7.4-2.9
			c-3.8,0-6.7,1.6-8.6,4.7c-2,3.1-2.9,7.2-2.9,12.1V70c0,5,1,9,2.9,12.1C474.3,85.3,477.2,86.8,481.1,86.8z"/>
		<path fill="#57167D" d="M521.5,81c-1.1,2.3-2.8,4.1-5,5.5c-2.2,1.4-4.9,2.1-8.1,2.1c-3,0-5.4-0.9-7.1-2.8
			c-1.7-1.9-2.6-4.5-2.6-7.7c0-3.1,1.3-5.7,3.9-7.9c2.6-2.1,5.8-3.2,9.6-3.2h9.3v-5.5c0-3.1-0.9-5.5-2.6-7.3
			c-1.7-1.7-4.2-2.6-7.3-2.6c-2.9,0-5.3,0.8-7.1,2.4c-1.8,1.6-2.7,3.7-2.7,6.3l-1.3-0.1l-0.1-0.2c-0.1-2.9,0.9-5.4,2.9-7.4
			c2.1-2,4.8-3,8.2-3c3.5,0,6.3,1,8.4,3c2.1,2,3.1,4.9,3.1,8.8v18.7c0,1.3,0.1,2.6,0.2,3.8s0.3,2.5,0.6,3.7h-1.8
			c-0.3-1.6-0.4-2.9-0.5-3.7c-0.1-0.8-0.1-1.7-0.1-2.6V81z M508.5,86.8c3.2,0,5.9-0.8,8.2-2.4c2.2-1.6,3.9-4,4.9-7V69h-9.2
			c-3.4,0-6.2,0.9-8.5,2.7c-2.3,1.8-3.5,4-3.5,6.6c0,2.5,0.7,4.6,2.2,6.2C504.1,86,506,86.8,508.5,86.8z"/>
		<path fill="#57167D" d="M535,50.6l0.2,7.7c1-2.7,2.4-4.7,4.3-6.2c1.9-1.5,4.2-2.2,7-2.2c3.5,0,6.2,1.3,8,3.8
			c1.8,2.6,2.7,6.6,2.7,12.2v22h-1.6v-22c0-5.2-0.8-8.8-2.4-10.9c-1.6-2.1-3.8-3.2-6.5-3.2c-3.5,0-6.1,1.2-7.9,3.6
			c-1.8,2.4-2.9,5.5-3.3,9.2v23.3h-1.6V50.6H535z"/>
		<path fill="#57167D" d="M568.2,39.9l-2.1,9.3h-1.5l2-9.2v-5.8h1.6V39.9z"/>
		<path fill="#57167D" d="M593.8,78.8c0-2-0.7-3.8-2.2-5.4c-1.5-1.6-4-2.9-7.7-3.8c-3.9-0.9-6.7-2.2-8.4-3.6
			c-1.7-1.5-2.6-3.7-2.6-6.6c0-2.7,1-4.9,2.9-6.7c2-1.8,4.6-2.7,7.9-2.7c3.6,0,6.4,1,8.5,2.9c2.1,1.9,3,4.4,2.9,7.6l-0.1,0.2h-1.4
			c0-2.4-0.9-4.5-2.7-6.2c-1.8-1.7-4.2-2.6-7.3-2.6c-3,0-5.3,0.8-6.9,2.3c-1.6,1.5-2.3,3.2-2.3,5.2c0,2,0.7,3.6,2,5
			c1.3,1.4,3.9,2.6,7.9,3.6c3.6,1,6.4,2.3,8.2,3.9c1.9,1.7,2.8,4,2.8,7c0,2.9-1,5.3-3.1,7.1c-2.1,1.8-4.8,2.7-8.3,2.7
			c-3.8,0-6.7-1-8.9-2.9c-2.1-1.9-3.2-4.3-3-7.1l0.1-0.2h1.3c0.2,2.9,1.3,5.1,3.3,6.4c2,1.3,4.4,2,7.2,2c3,0,5.4-0.8,7.1-2.4
			C592.9,82.8,593.8,80.9,593.8,78.8z"/>
		<path fill="#FFFFFF" d="M646.2,75.9c0-3.2-1-5.7-3-7.6c-2-1.9-5.5-3.6-10.4-5.2c-5-1.5-8.6-3.3-10.9-5.3c-2.3-2-3.5-4.8-3.5-8.6
			c0-3.7,1.4-6.7,4.1-9c2.7-2.2,6.2-3.3,10.4-3.3c4.3,0,7.7,1.4,10.4,4.1c2.7,2.7,4,6.3,3.9,10.6l-0.1,0.2h-1.4
			c0-3.7-1.2-6.9-3.6-9.3c-2.4-2.5-5.5-3.7-9.3-3.7c-4,0-7.1,1-9.4,3.1c-2.3,2-3.5,4.5-3.5,7.3c0,2.9,1,5.2,2.9,7.1
			c1.9,1.9,5.4,3.6,10.4,5c4.8,1.5,8.5,3.3,11,5.4c2.5,2.1,3.7,5.1,3.7,9.1c0,4-1.4,7.1-4.2,9.4c-2.8,2.3-6.3,3.4-10.6,3.4
			c-4.4,0-8.1-1.2-11.3-3.5s-4.7-6.1-4.6-11.1l0.1-0.2h1.3c0,4.6,1.5,7.9,4.4,9.9c2.9,2.1,6.3,3.1,10.1,3.1c3.8,0,7-1,9.5-3
			C644.9,81.8,646.2,79.1,646.2,75.9z"/>
		<path fill="#FFFFFF" d="M666.8,88.7c-3.7,0-6.9-1.7-9.6-5.2c-2.7-3.4-4-7.7-4-12.8v-2.2c0-5.4,1.3-9.8,3.9-13.3
			c2.6-3.5,5.8-5.3,9.6-5.3c3.7,0,6.6,1.4,8.9,4.1c2.3,2.8,3.5,6.5,3.5,11.1V68h-24.3v0.4v2.2c0,4.5,1.1,8.3,3.4,11.4
			c2.3,3.1,5.1,4.7,8.5,4.7c2.4,0,4.4-0.4,6.1-1.1c1.6-0.8,3-1.9,4.2-3.4l0.9,1.4c-1.3,1.6-2.8,2.9-4.7,3.7
			C671.5,88.3,669.3,88.7,666.8,88.7z M666.8,51.8c-3.2,0-5.9,1.4-8,4.1c-2.1,2.7-3.3,6.1-3.6,10.1l0.1,0.2h22.4V65c0-3.8-1-7-3-9.5
			C672.6,53.1,670,51.8,666.8,51.8z"/>
		<path fill="#FFFFFF" d="M697.7,86.8c2.7,0,5.2-0.9,7.3-2.6c2.1-1.7,3.1-4.3,3.1-7.8h1.4l0.1,0.2c0.1,3.7-1.1,6.6-3.5,8.7
			c-2.4,2.2-5.2,3.3-8.3,3.3c-4.1,0-7.4-1.7-9.7-5.1c-2.3-3.4-3.5-7.9-3.5-13.5v-1.4c0-5.6,1.2-10.1,3.5-13.5
			c2.3-3.4,5.6-5.1,9.7-5.1c3.4,0,6.2,1.1,8.5,3.4c2.3,2.3,3.5,5.5,3.4,9.6l-0.1,0.2h-1.4c0-3.7-1-6.5-3.1-8.4s-4.5-2.9-7.4-2.9
			c-3.8,0-6.7,1.6-8.6,4.7c-2,3.1-2.9,7.2-2.9,12.1V70c0,5,1,9,2.9,12.1C691,85.3,693.9,86.8,697.7,86.8z"/>
		<path fill="#FFFFFF" d="M732.2,52l-2.1-0.2c-2.9,0-5.3,1.1-7.1,3.2c-1.8,2.2-3,5-3.5,8.5v24.5h-1.6V50.6h1.3l0.3,6.5v1.3
			c0.9-2.7,2.2-4.7,4-6.2c1.8-1.5,4-2.2,6.6-2.2c0.5,0,0.9,0,1.3,0.1c0.4,0.1,0.7,0.2,1,0.3L732.2,52z"/>
		<path fill="#FFFFFF" d="M748.7,88.7c-3.7,0-6.9-1.7-9.6-5.2s-4-7.7-4-12.8v-2.2c0-5.4,1.3-9.8,3.9-13.3c2.6-3.5,5.8-5.3,9.6-5.3
			c3.7,0,6.6,1.4,8.9,4.1c2.3,2.8,3.5,6.5,3.5,11.1V68h-24.3v0.4v2.2c0,4.5,1.1,8.3,3.4,11.4c2.3,3.1,5.1,4.7,8.5,4.7
			c2.4,0,4.4-0.4,6.1-1.1c1.6-0.8,3-1.9,4.2-3.4l0.9,1.4c-1.3,1.6-2.8,2.9-4.7,3.7C753.4,88.3,751.2,88.7,748.7,88.7z M748.6,51.8
			c-3.2,0-5.9,1.4-8,4.1c-2.1,2.7-3.3,6.1-3.6,10.1l0.1,0.2h22.4V65c0-3.8-1-7-3-9.5C754.4,53.1,751.8,51.8,748.6,51.8z"/>
		<path fill="#FFFFFF" d="M772,40.6v10.1h8v1.9h-8v25.8c0,3.1,0.4,5.2,1.3,6.5c0.9,1.3,2.1,1.9,3.6,1.9c0.5,0,1,0,1.4-0.1
			c0.4,0,1-0.1,1.7-0.2l0.3,1.7c-0.5,0.2-1,0.3-1.6,0.4c-0.5,0.1-1.1,0.1-1.8,0.1c-2.2,0-3.8-0.8-5-2.4c-1.1-1.6-1.7-4.3-1.7-7.9
			V52.5h-6v-1.9h6V40.6H772z"/>
		<path fill="#FFFFFF" d="M807.4,78.8c0-2-0.7-3.8-2.2-5.4c-1.5-1.6-4-2.9-7.7-3.8c-3.9-0.9-6.7-2.2-8.4-3.6
			c-1.7-1.5-2.6-3.7-2.6-6.6c0-2.7,1-4.9,2.9-6.7s4.6-2.7,7.9-2.7c3.6,0,6.4,1,8.5,2.9c2.1,1.9,3,4.4,2.9,7.6l-0.1,0.2h-1.4
			c0-2.4-0.9-4.5-2.7-6.2c-1.8-1.7-4.2-2.6-7.3-2.6c-3,0-5.3,0.8-6.9,2.3c-1.6,1.5-2.3,3.2-2.3,5.2c0,2,0.7,3.6,2,5
			c1.3,1.4,3.9,2.6,7.9,3.6c3.6,1,6.4,2.3,8.2,3.9c1.9,1.7,2.8,4,2.8,7c0,2.9-1,5.3-3.1,7.1c-2.1,1.8-4.8,2.7-8.3,2.7
			c-3.8,0-6.7-1-8.9-2.9s-3.2-4.3-3-7.1l0.1-0.2h1.3c0.2,2.9,1.3,5.1,3.3,6.4c2,1.3,4.4,2,7.2,2c3,0,5.4-0.8,7.1-2.4
			C806.6,82.8,807.4,80.9,807.4,78.8z"/>
	</g>
</g>
</svg>
